<svg width="14" height="16" viewBox="0 0 14 16" fill="none" xmlns="http://www.w3.org/2000/svg">
<path d="M13.086 5.45382C12.564 5.77402 12.1316 6.22167 11.8293 6.75488C11.527 7.2881 11.3647 7.88944 11.3575 8.50263C11.3595 9.19277 11.5636 9.86714 11.9445 10.4422C12.3253 11.0173 12.8661 11.4678 13.5 11.738C13.2501 12.5458 12.8802 13.3114 12.4028 14.009C11.7198 14.9941 11.0055 15.9792 9.91879 15.9792C8.83205 15.9792 8.55254 15.3467 7.30015 15.3467C6.07882 15.3467 5.64408 16 4.65044 16C3.6568 16 2.96341 15.0874 2.16639 13.9675C1.11359 12.3986 0.534985 10.5587 0.5 8.6685C0.5 5.55754 2.51835 3.90878 4.50553 3.90878C5.5613 3.90878 6.4411 4.60349 7.10352 4.60349C7.73488 4.60349 8.7182 3.86721 9.91879 3.86721C10.5361 3.85126 11.1478 3.98762 11.7001 4.2643C12.2524 4.54098 12.7284 4.94948 13.086 5.45382ZM9.34956 2.5503C9.8788 1.92654 10.1784 1.13973 10.1983 0.321297C10.1992 0.213404 10.1888 0.105715 10.1672 0C9.25812 0.0889729 8.41746 0.523087 7.81766 1.2133C7.28332 1.8122 6.97244 2.578 6.93787 3.38055C6.93827 3.47815 6.94868 3.57545 6.96893 3.67092C7.0406 3.68449 7.11336 3.69145 7.1863 3.6917C7.60528 3.6583 8.0131 3.5399 8.38498 3.34368C8.75686 3.14746 9.08504 2.87753 9.34956 2.5503Z" fill="black" fill-opacity="0.8"/>
</svg>
