<svg width="16" height="15" viewBox="0 0 16 15" fill="none" xmlns="http://www.w3.org/2000/svg">
<path d="M14.7982 13.2022L10.9282 9.3322C11.6292 8.4032 12.0502 7.2512 12.0502 6.0002C12.0502 2.9402 9.5612 0.450195 6.5002 0.450195C3.4402 0.450195 0.950195 2.9402 0.950195 6.0002C0.950195 9.0612 3.4402 11.5502 6.5002 11.5502C7.7512 11.5502 8.9032 11.1292 9.8322 10.4282L13.7022 14.2982C13.8532 14.4492 14.0522 14.5262 14.2502 14.5262C14.4482 14.5262 14.6462 14.4502 14.7982 14.2982C15.1012 13.9952 15.1012 13.5052 14.7982 13.2022ZM2.0502 6.0002C2.0502 3.5462 4.0472 1.5502 6.5002 1.5502C8.9542 1.5502 10.9502 3.5472 10.9502 6.0002C10.9502 8.4532 8.9542 10.4502 6.5002 10.4502C4.0462 10.4502 2.0502 8.4542 2.0502 6.0002Z" fill="black" fill-opacity="0.8"/>
</svg>
