<svg width="13" height="15" viewBox="0 0 13 15" fill="none" xmlns="http://www.w3.org/2000/svg">
<path d="M10.8533 3.02828H9.83279C9.72338 2.21726 9.32703 1.47228 8.71558 0.92837C8.10412 0.384462 7.31803 0.0776246 6.49979 0.0634766C5.68155 0.0776246 4.89545 0.384462 4.284 0.92837C3.67254 1.47228 3.27619 2.21726 3.16679 3.02828H2.14679C1.58557 3.02865 1.04744 3.2517 0.650532 3.64846C0.253621 4.04522 0.0303679 4.58327 0.0297852 5.14448V12.86C0.030288 13.4211 0.25339 13.9591 0.650131 14.356C1.04687 14.7528 1.58484 14.976 2.14599 14.9767H10.853C11.4142 14.9762 11.9524 14.753 12.3492 14.3562C12.7461 13.9593 12.9693 13.4212 12.9698 12.86V5.14448C12.9692 4.58335 12.746 4.04538 12.3492 3.64863C11.9524 3.25189 11.4144 3.02878 10.8533 3.02828ZM6.49979 1.16308C7.0272 1.17454 7.5349 1.36565 7.93897 1.7048C8.34303 2.04395 8.61926 2.51084 8.72199 3.02828H4.27759C4.38031 2.51084 4.65654 2.04395 5.0606 1.7048C5.46467 1.36565 5.97237 1.17454 6.49979 1.16308ZM11.8698 12.86C11.8695 13.1296 11.7623 13.388 11.5717 13.5787C11.3812 13.7693 11.1228 13.8767 10.8532 13.8771H2.14629C1.87673 13.8766 1.61835 13.7693 1.4278 13.5786C1.23725 13.388 1.13008 13.1295 1.12979 12.86V5.14448C1.1301 4.87496 1.23731 4.61656 1.42789 4.42598C1.61847 4.2354 1.87686 4.12819 2.14639 4.12788H10.8534C11.1229 4.12825 11.3812 4.23548 11.5718 4.42605C11.7623 4.61663 11.8695 4.87499 11.8698 5.14448V12.86Z" fill="black" fill-opacity="0.8"/>
</svg>
